<?xml version="1.0" encoding="iso-8859-1"?>
<!-- Generator: Adobe Illustrator 16.0.0, SVG Export Plug-In . SVG Version: 6.00 Build 0)  -->
<!DOCTYPE svg PUBLIC "-//W3C//DTD SVG 1.1//EN" "http://www.w3.org/Graphics/SVG/1.1/DTD/svg11.dtd">
<svg version="1.1" id="&#x56FE;&#x5C42;_1" xmlns="http://www.w3.org/2000/svg" xmlns:xlink="http://www.w3.org/1999/xlink" x="0px"
	 y="0px" width="500px" height="500px" viewBox="0 0 500 500" style="enable-background:new 0 0 500 500;" xml:space="preserve">
<path style="fill:#505556;" d="M275.375,120.445c-6.781,2.078-16.734,3.828-30.516,5.031c1.203-62.016,32.703-105.656,96.25-120.422
	C351.281,50.555,312.563,107.977,275.375,120.445z M408.047,199.961c7-10.281,18.156-21.766,33.469-34.672
	c-24.391-30.188-52.609-48.453-93.078-48.453c-38.719,0-71.313,19.906-95.156,19.906c-20.234,0-56.766-17.609-92.422-17.609
	c-76.125,0-116.484,74.484-116.484,152.031c0,86.188,65.297,223.781,131.469,223.781c26.031,0,49.438-19.688,80.391-19.688
	c32.047,0,57.75,18.813,87.828,18.813c50.313,0,96.906-84.766,111.563-130.922C404.438,347.508,363.313,264.492,408.047,199.961z"/>
</svg>
