<?xml version="1.0" encoding="utf-8"?>
<!-- Generator: Adobe Illustrator 26.0.2, SVG Export Plug-In . SVG Version: 6.00 Build 0)  -->
<svg version="1.1" id="Layer_1" xmlns="http://www.w3.org/2000/svg" xmlns:xlink="http://www.w3.org/1999/xlink" x="0px" y="0px"
	 viewBox="0 0 406.9 406.9" style="enable-background:new 0 0 406.9 406.9;" xml:space="preserve">
<style type="text/css">
	.st0{fill:#3CAFC2;}
	.st1{fill:#B4529F;}
	.st2{fill:#68CED8;}
	.st3{fill:#91167A;}
	.st4{fill:#FFFFFF;}
</style>
<g id="Layer_2_00000156551513710590395180000003028110179733780137_">
	<g id="Background">
		<path class="st0" d="M203.5,379.4C106.3,380.1,26.9,302,26.2,204.8S103.6,28.3,200.8,27.5c0.9,0,1.8,0,2.7,0"/>
		<path class="st1" d="M203.5,27.5c97.2,0.7,175.4,80.1,174.6,177.3c-0.7,96.1-78.5,173.9-174.6,174.6"/>
		<path class="st2" d="M203.5,406.9C91.3,406.9,0,315.7,0,203.5S91.3,0,203.5,0v30C107.8,30,30,107.8,30,203.5
			s77.8,173.5,173.5,173.5V406.9z"/>
		<path class="st3" d="M203.5,406.9v-30c95.6,0,173.5-77.8,173.5-173.5S299.1,30,203.5,30V0c112.2,0,203.5,91.3,203.5,203.5
			S315.7,406.9,203.5,406.9z"/>
	</g>
</g>
<g>
	<path class="st4" d="M139.3,208.2c-0.5,0-0.9,0-1.3,0c-3.8,0-7.7,0-11.5,0c-6.8,0-12.8-5.2-13.4-11.7c-0.7-7,3.8-13.2,10.5-14.6
		c1.1-0.2,2.2-0.3,3.4-0.3c7.8,0,15.6,0,23.5,0c1-2.3,1.9-4.7,2.9-7c9.7-23.4,19.3-46.9,29-70.3c1.7-4.1,4-7.7,7.5-10.5
		c2.8-2.2,6-3.5,9.6-3.6c2.8-0.1,5.6-0.1,8.4-0.1c6.3,0.1,11.2,2.8,14.8,7.9c1.4,2,2.7,4.3,3.7,6.6c24.5,59.1,49,118.3,73.4,177.4
		c1.9,4.6,1.5,9.2-1.1,13.5c-3.8,6.4-12.9,7.1-18.2,3.6c-2.9-1.9-4.9-4.5-6.1-7.7c-13.3-33-26.6-66-39.8-98.9
		c-9.9-24.7-19.8-49.3-29.7-74c-0.1-0.3-0.3-0.7-0.5-1.2c-8.6,21.5-17.2,42.8-25.8,64.2c4.2,0,8.2-0.1,12.2,0c1.6,0,3.2,0.3,4.6,0.8
		c6,2.1,9.4,7.7,8.8,14.2c-0.5,5.8-5.3,10.7-11.3,11.6c-0.8,0.1-1.6,0.2-2.5,0.2c-7.2,0-14.3,0-21.5,0c-0.4,0-0.8,0-1.3,0
		c-1.6,4.1-3.3,8.1-4.9,12.1c-9.6,23.8-19.2,47.6-28.8,71.3c-1.9,4.7-5.2,8.2-10.4,9.2c-7.7,1.6-14.7-2.5-15.8-11.2
		c-0.4-3,0.1-5.7,1.3-8.4c9.9-23.9,19.8-47.9,29.7-71.8C139,209,139.1,208.7,139.3,208.2z"/>
</g>
</svg>
