<?xml version="1.0" encoding="utf-8"?>
<!-- Generator: Adobe Illustrator 26.0.2, SVG Export Plug-In . SVG Version: 6.00 Build 0)  -->
<svg version="1.1" id="Layer_1" xmlns="http://www.w3.org/2000/svg" xmlns:xlink="http://www.w3.org/1999/xlink" x="0px" y="0px"
	 viewBox="0 0 406.9 406.9" style="enable-background:new 0 0 406.9 406.9;" xml:space="preserve">
<style type="text/css">
	.st0{fill:#0050D1;}
	.st1{fill:#0033AD;}
	.st2{fill:#005ADD;}
	.st3{fill:#002D75;}
	.st4{fill:#FFFFFF;}
</style>
<g id="Layer_2_00000051357894475263397380000014450088545496781447_">
	<g id="Background">
		<path class="st0" d="M203.5,379.4C106.3,380.1,26.9,302,26.2,204.8S103.6,28.3,200.8,27.5c0.9,0,1.8,0,2.7,0"/>
		<path class="st1" d="M203.5,27.5c97.2,0.7,175.4,80.1,174.6,177.3c-0.7,96.1-78.5,173.9-174.6,174.6"/>
		<path class="st2" d="M203.5,406.9C91.3,406.9,0,315.7,0,203.5S91.3,0,203.5,0v30C107.8,30,30,107.8,30,203.5
			s77.8,173.5,173.5,173.5V406.9z"/>
		<path class="st3" d="M203.5,406.9v-30c95.6,0,173.5-77.8,173.5-173.5S299.1,30,203.5,30V0c112.2,0,203.5,91.3,203.5,203.5
			S315.7,406.9,203.5,406.9z"/>
	</g>
</g>
<g id="XMLID_00000047749091893048505650000006095010633335046016_">
	<g>
		<g>
			<path class="st4" d="M339.7,203.9c-0.2,0.3-0.2,0.6-0.3,1c-0.9,2.8-3.5,4.5-6.4,4.2c-2.7-0.3-4.9-2.7-5.1-5.6
				c-0.2-2.8,1.7-5.3,4.5-6c3.2-0.8,6.5,1.3,7.1,4.6c0,0.2,0,0.4,0.2,0.5C339.7,203,339.7,203.4,339.7,203.9z"/>
			<path class="st4" d="M178.5,203.6c0.1,9.9-8.1,18.6-19,18.3c-9.3-0.3-17.6-7.9-17.6-18.3c0-10.2,8.2-18.3,18.5-18.3
				C170.5,185.3,178.6,193.4,178.5,203.6z"/>
			<path class="st4" d="M200,166c0,10.1-8.2,18.3-18.3,18.3c-10,0-18.3-8.3-18.3-18.3c0-10.1,8.3-18.5,18.3-18.4
				C191.9,147.6,200.1,155.8,200,166z"/>
			<path class="st4" d="M200.2,241c-0.1,10.2-8.2,18.3-18.4,18.3c-10.2,0-18.3-8.3-18.3-18.7c0-9.9,8.4-18,18.5-18
				C192.1,222.7,200.3,230.9,200.2,241z"/>
			<path class="st4" d="M225.2,259.2c-10.1,0-18.3-8.2-18.3-18.2c0-10.1,8.2-18.4,18.1-18.4c10.3,0,18.5,8.2,18.5,18.3
				C243.5,251,235.3,259.2,225.2,259.2z"/>
			<path class="st4" d="M265,203.2c0,10.4-8.5,18.5-18.6,18.4c-9.8-0.1-18-8.2-18-18.2c0-10.2,8.1-18.3,18.2-18.4
				C256.8,185,264.9,193.1,265,203.2z"/>
			<path class="st4" d="M206.7,166c0-10.2,8.2-18.3,18.3-18.4c10,0,18.2,8.2,18.2,18.3c0,10.1-8.2,18.3-18.2,18.3
				C214.9,184.2,206.7,176.1,206.7,166z"/>
			<path class="st4" d="M214,129.3c0,6-4.7,10.8-10.7,10.8c-6,0-10.8-4.7-10.8-10.7c0-6,4.8-10.8,10.7-10.7
				C209.2,118.7,214,123.4,214,129.3z"/>
			<path class="st4" d="M202.9,266.9c6,0,10.8,4.8,10.8,10.6c0,6-4.8,10.9-10.8,10.8c-5.9,0-10.7-4.8-10.7-10.7
				C192.2,271.6,196.9,266.8,202.9,266.9z"/>
			<path class="st4" d="M257,240.4c0-6,4.8-10.7,10.7-10.8c6,0,10.8,4.8,10.8,10.8c0,5.9-4.9,10.8-10.7,10.7
				C261.8,251.1,257,246.3,257,240.4z"/>
			<path class="st4" d="M149.9,166.5c0,6-4.8,10.8-10.7,10.8c-6,0-10.8-4.8-10.8-10.8c0-5.9,4.8-10.7,10.7-10.7
				C145.1,155.8,149.9,160.6,149.9,166.5z"/>
			<path class="st4" d="M139.4,251.4c-6,0-10.7-4.9-10.7-10.8c0-5.9,4.9-10.7,10.8-10.6c5.9,0,10.7,4.9,10.7,10.7
				C150.1,246.6,145.3,251.4,139.4,251.4z"/>
			<path class="st4" d="M278.3,166.2c0,5.9-4.8,10.8-10.6,10.8c-6,0-10.8-4.8-10.8-10.7c0-5.9,4.8-10.7,10.7-10.7
				C273.4,155.5,278.3,160.3,278.3,166.2z"/>
			<path class="st4" d="M251.7,295.8c-5,0-9.1-4.1-9.1-9.1c0-5.1,4.1-9.1,9.2-9.1c5,0,9.1,4.2,9.1,9.2
				C260.9,291.7,256.8,295.8,251.7,295.8z"/>
			<path class="st4" d="M251.4,129.2c-5.1,0-9.2-4.1-9.2-9.1c0-5,4.2-9.2,9.2-9.2c5,0,9.1,4.1,9.1,9.2
				C260.5,125.2,256.5,129.2,251.4,129.2z"/>
			<path class="st4" d="M155.5,277.7c5.1,0,9.2,4.1,9.2,9.1c0,5-4.2,9.1-9.2,9.1c-5,0-9.1-4.1-9.2-9.1
				C146.4,281.8,150.4,277.8,155.5,277.7z"/>
			<path class="st4" d="M116.4,203.8c-0.1,5.2-4.2,9.2-9.4,9.1c-4.9-0.1-8.9-4.3-8.8-9.2c0.1-5.1,4.2-9.1,9.3-9
				C112.4,194.7,116.5,198.8,116.4,203.8z"/>
			<path class="st4" d="M290.5,203.2c0.1-5.2,4.2-9.2,9.3-9.1c5.1,0.1,9.1,4.2,9,9.2c-0.1,5-4.3,9.1-9.3,9
				C294.5,212.3,290.4,208.2,290.5,203.2z"/>
			<path class="st4" d="M155.2,111.2c5.1,0,9.1,4,9.1,9.1c0,5-4,9.1-9.1,9.1c-5,0-9.2-4.1-9.2-9.1
				C146.1,115.3,150.2,111.2,155.2,111.2z"/>
			<path class="st4" d="M108.6,262.9c0,4.2-3.3,7.5-7.5,7.5c-4.2,0-7.5-3.4-7.5-7.6c0-4.1,3.3-7.4,7.5-7.4
				C105.3,255.4,108.6,258.7,108.6,262.9z"/>
			<path class="st4" d="M195.4,321.9c0-4.2,3.5-7.6,7.6-7.6c4.1,0,7.5,3.5,7.4,7.7c0,4.1-3.5,7.4-7.6,7.4
				C198.8,329.4,195.4,325.9,195.4,321.9z"/>
			<path class="st4" d="M305.8,151.6c-4.1,0-7.5-3.3-7.6-7.4c0-4.1,3.4-7.5,7.5-7.6c4.2,0,7.5,3.3,7.5,7.4
				C313.3,148.2,310,151.5,305.8,151.6z"/>
			<path class="st4" d="M195.7,85.1c0-4.1,3.3-7.5,7.4-7.5c4.1,0,7.6,3.3,7.6,7.4c0,4.2-3.4,7.6-7.5,7.7
				C199.1,92.7,195.7,89.2,195.7,85.1z"/>
			<path class="st4" d="M313.6,262.5c0,4.2-3.4,7.5-7.7,7.5c-4.1,0-7.4-3.4-7.3-7.6c0-4.1,3.4-7.4,7.5-7.3
				C310.3,255,313.6,258.3,313.6,262.5z"/>
			<path class="st4" d="M100.8,152c-4.2,0-7.5-3.3-7.5-7.5c0-4.2,3.4-7.5,7.5-7.5c4.1,0,7.5,3.4,7.5,7.5
				C108.3,148.7,105,152,100.8,152z"/>
			<path class="st4" d="M274.2,90.4c0,3.2-2.6,5.9-5.8,5.9c-3.3,0-5.9-2.6-5.9-5.9c0-3.3,2.5-5.9,5.8-5.9
				C271.5,84.5,274.2,87.2,274.2,90.4z"/>
			<path class="st4" d="M143.9,90.6c0,3.3-2.6,5.9-5.9,5.9c-3.3,0-5.9-2.7-5.9-6c0-3.2,2.6-5.8,5.8-5.8
				C141.3,84.8,143.9,87.4,143.9,90.6z"/>
			<path class="st4" d="M274.7,316.3c0,3.3-2.6,5.8-5.8,5.8c-3.3,0-5.9-2.6-5.9-5.9c0-3.3,2.6-5.9,5.9-5.9
				C272.2,310.4,274.8,313,274.7,316.3z"/>
			<path class="st4" d="M73.1,209.6c-3.4,0-6-2.6-5.9-6c0-3.2,2.7-5.8,5.9-5.8c3.3,0,5.9,2.7,5.9,5.9
				C78.9,207,76.3,209.7,73.1,209.6z"/>
			<path class="st4" d="M138.4,322.3c-3.3,0-5.8-2.6-5.8-5.9c0-3.2,2.6-5.8,5.9-5.8c3.2,0,5.9,2.7,5.9,5.9
				C144.4,319.7,141.7,322.3,138.4,322.3z"/>
		</g>
	</g>
</g>
</svg>
