<?xml version="1.0" encoding="utf-8"?>
<!-- Generator: Adobe Illustrator 26.0.2, SVG Export Plug-In . SVG Version: 6.00 Build 0)  -->
<svg version="1.1" id="Layer_1" xmlns="http://www.w3.org/2000/svg" xmlns:xlink="http://www.w3.org/1999/xlink" x="0px" y="0px"
	 viewBox="0 0 406.9 406.9" style="enable-background:new 0 0 406.9 406.9;" xml:space="preserve">
<style type="text/css">
	.st0{fill:#BC5BF4;}
	.st1{fill:#3A5EFD;}
	.st2{fill:#E788E3;}
	.st3{fill:#37C1FB;}
	.st4{fill:#FFFFFF;}
</style>
<g id="Layer_2_00000017517858872556515320000014893627645845013428_">
	<g id="Background">
		<path class="st0" d="M203.5,379.4C106.3,380.1,26.9,302,26.2,204.8S103.6,28.3,200.8,27.5c0.9,0,1.8,0,2.7,0"/>
		<path class="st1" d="M203.5,27.5c97.2,0.7,175.4,80.1,174.6,177.3c-0.7,96.1-78.5,173.9-174.6,174.6"/>
		<path class="st2" d="M203.5,406.9C91.3,406.9,0,315.7,0,203.5S91.3,0,203.5,0v30C107.8,30,30,107.8,30,203.5
			s77.8,173.5,173.5,173.5V406.9z"/>
		<path class="st3" d="M203.5,406.9v-30c95.6,0,173.5-77.8,173.5-173.5S299.1,30,203.5,30V0c112.2,0,203.5,91.3,203.5,203.5
			S315.7,406.9,203.5,406.9z"/>
	</g>
</g>
<g>
	<path class="st4" d="M138.5,297.7c-25.8-0.8-45.2-13.5-53.2-38.5c-5.5-17.3-3.1-34.3,7.2-49.9c21.6-32.5,43.3-65,64.7-97.6
		c17.7-26.9,58.6-34.1,82.9-10.9c9.2,8.8,16.1,20,23.3,30.7c18,27,36.1,53.9,53.2,81.4c18.9,30.3,3.1,72.1-32.4,83.1
		c-3.6,1.1-7.6,1.6-11.4,1.7C250.2,297.9,160.4,298.3,138.5,297.7z M240.7,182.8c-5.7,0.4-11.8,2.7-17.3,7.4
		c-15.7,13.3-18.4,38.1-9.5,55.2c11.7,22.4,36.4,27.7,52.9,6.9c11.5-14.5,12.6-31.5,5-48.2C266.2,191.6,256.8,183.1,240.7,182.8z
		 M127.9,224.1c2.2,7.4,3.6,15.2,6.6,22.2c7.2,17,28.9,23.2,44,13.6c20.4-13,23.2-51,4.4-68.3c-11.1-10.1-24.4-11.8-36.7-3.3
		C134,196.8,128.8,208.9,127.9,224.1z"/>
	<path d="M240.7,182.8c16.1,0.3,25.5,8.8,31.2,21.3c7.6,16.8,6.4,33.7-5,48.2c-16.5,20.8-41.2,15.5-52.9-6.9
		c-8.9-17.1-6.2-41.9,9.5-55.2C228.9,185.5,235,183.1,240.7,182.8z M253.4,212c0-8.9-7.4-16.2-16.2-16.2c-8.8,0-16.3,7.7-16.1,16.3
		c0.2,8.8,7.5,15.9,16.3,16C246.6,228.1,253.5,221.2,253.4,212z"/>
	<path d="M181.1,190.1c15.7,13.3,18.4,38.1,9.5,55.2c-11.7,22.4-36.4,27.7-52.9,6.9c-11.5-14.5-12.6-31.5-5-48.2
		c5.7-12.5,15.1-21,31.2-21.3C169.6,183.1,175.6,185.5,181.1,190.1z"/>
	<path class="st4" d="M253.4,212c0,9.2-6.8,16.1-16,16.1c-8.8,0-16.1-7.1-16.3-16c-0.2-8.6,7.4-16.3,16.1-16.3
		C246,195.8,253.4,203.1,253.4,212z"/>
	<path class="st4" d="M174.6,212.5c-0.1,8.6-7.2,15.6-16,15.5c-8.9,0-16.4-7.5-16.3-16.2c0.1-8.6,7.9-16.2,16.6-16
		C167.6,195.9,174.7,203.5,174.6,212.5z"/>
</g>
</svg>
