<svg xmlns="http://www.w3.org/2000/svg" viewBox="0 0 406.94 406.94"><g id="Layer_2" data-name="Layer 2"><g id="Background"><path d="M203.47,379.41a175.95,175.95,0,1,1,0-351.89" fill="#feea96"/><path d="M203.47,27.52a175.95,175.95,0,0,1,0,351.89" fill="#fed82b"/><path d="M203.47,406.94C91.28,406.94,0,315.66,0,203.47S91.28,0,203.47,0V30C107.82,30,30,107.82,30,203.47s77.82,173.47,173.47,173.47Z" fill="#fea71e"/><path d="M203.47,406.94v-30c95.65,0,173.47-77.82,173.47-173.47S299.12,30,203.47,30V0C315.66,0,406.94,91.28,406.94,203.47S315.66,406.94,203.47,406.94Z" fill="#fe8600"/><text transform="translate(52.29 235.82)" font-size="97.06" fill="#dc5801" font-family="Montserrat-Black, Montserrat" font-weight="800">m<tspan x="100.94" y="0" letter-spacing="-0.01em">BT</tspan><tspan x="237.51" y="0">C</tspan></text></g></g></svg>