<svg xmlns="http://www.w3.org/2000/svg" viewBox="0 0 406.94 406.94"><g id="Layer_2" data-name="Layer 2"><g id="Background"><path d="M203.47,379.41a175.95,175.95,0,1,1,0-351.89" fill="#bbc4c7"/><path d="M203.47,27.52a175.95,175.95,0,0,1,0,351.89" fill="#809298"/><path d="M203.47,406.94C91.28,406.94,0,315.66,0,203.47S91.28,0,203.47,0V30C107.82,30,30,107.82,30,203.47s77.82,173.47,173.47,173.47Z" fill="#87898a"/><path d="M203.47,406.94v-30c95.65,0,173.47-77.82,173.47-173.47S299.12,30,203.47,30V0C315.66,0,406.94,91.28,406.94,203.47S315.66,406.94,203.47,406.94Z" fill="#6e7577"/><text transform="translate(83.92 295.7)" font-size="250.47" fill="#606060" font-family="Montserrat-Bold, Montserrat" font-weight="700">M</text></g></g></svg>