<svg width="108" height="108" viewBox="0 0 108 108" fill="none" xmlns="http://www.w3.org/2000/svg">
<path d="M54.5559 107.864H53.9239C53.6909 107.778 53.4345 107.778 53.2015 107.864H50.403C40.5376 107.149 31.0566 103.746 22.988 98.0239C14.9194 92.3016 8.57106 84.479 4.63222 75.4043C2.05047 69.6113 0.521937 63.404 0.118347 57.0745C-0.039449 54.7596 -0.039449 52.4365 0.118347 50.1217C0.321091 47.6032 0.682879 45.1005 1.20163 42.6278C3.87356 30.3786 10.7108 19.436 20.547 11.6644C30.3833 3.89282 42.6099 -0.226294 55.1427 0.00959689C57.2567 0.0235135 59.3672 0.173656 61.4617 0.460402C74.1856 2.26784 85.8527 8.54129 94.3779 18.1597C102.903 27.7782 107.731 40.1155 108 52.9665C107.935 53.2029 107.935 53.4521 108 53.6885V54.3211C107.928 54.5411 107.928 54.778 108 54.9979C108 55.946 108 56.8946 108 57.8427C107.788 60.7169 107.35 63.5695 106.691 66.3749C103.916 78.0408 97.35 88.4564 88.0215 95.9892C78.693 103.522 67.1294 107.746 55.1427 108C54.9659 107.895 54.7608 107.848 54.5559 107.864ZM60.8303 60.6864H62.6354C64.2152 60.6864 65.7953 60.6861 67.4203 60.3249C69.0453 59.9637 71.5279 59.8737 73.6043 59.5126C76.509 59.078 79.3657 58.3676 82.1356 57.3908C83.5473 56.956 84.8535 56.2337 85.9723 55.269C86.2341 55.0712 86.4465 54.8155 86.5927 54.5217C86.7389 54.228 86.8148 53.9042 86.8148 53.576C86.8148 53.2479 86.7389 52.9241 86.5927 52.6303C86.4465 52.3366 86.2341 52.0809 85.9723 51.883C84.8343 50.8867 83.4948 50.1476 82.0452 49.7161C78.9542 48.646 75.7635 47.8897 72.521 47.4588C69.0683 46.9117 65.5865 46.5651 62.0937 46.4205H60.8303V38.6102H78.8857V26.3293H29.2332V38.6995H47.2886V46.0138L41.5559 46.4657C38.8025 46.4657 36.0487 47.0525 33.3404 47.5491C30.6372 47.9635 27.9881 48.675 25.4411 49.6709C24.1806 50.0767 23.0249 50.7546 22.0557 51.6571C21.8112 51.8516 21.614 52.0987 21.4782 52.3801C21.3425 52.6615 21.2722 52.9704 21.2722 53.2828C21.2722 53.5953 21.3425 53.9031 21.4782 54.1845C21.614 54.4659 21.8112 54.713 22.0557 54.9075C22.643 55.4391 23.2954 55.8944 23.9969 56.2621C26.1491 57.2882 28.4249 58.0317 30.7677 58.4743C33.3311 59.0458 35.9224 59.483 38.5314 59.7837C40.8787 60.0546 43.0456 60.2798 45.5733 60.4153H47.4236V86.0142H60.9653L60.8303 60.6864Z" fill="#26A17B"/>
<path d="M47.2232 56.2298C51.6836 56.5108 56.1565 56.5108 60.6169 56.2298V46.987C61.1369 46.942 61.66 46.942 62.18 46.987C64.4569 46.987 66.6442 47.3563 69.0551 47.6335C72.873 48.0016 76.6349 48.8396 80.2613 50.1293C81.0873 50.4104 81.8476 50.8671 82.4936 51.4697C82.688 51.588 82.8492 51.7567 82.9612 51.9593C83.0732 52.162 83.1323 52.3915 83.1323 52.625C83.1323 52.8585 83.0732 53.088 82.9612 53.2907C82.8492 53.4933 82.688 53.662 82.4936 53.7803C81.7083 54.4329 80.8162 54.9341 79.8596 55.2595C77.4628 56.0935 74.9968 56.6963 72.4929 57.0613C69.8142 57.5235 67.091 57.8006 64.4123 58.0317L59.9477 58.263C56.9118 58.263 53.8758 58.263 51.0185 58.263C48.1612 58.263 44.8571 58.0325 41.7765 57.7552C37.9559 57.4438 34.1649 56.8251 30.4368 55.906C29.127 55.5669 27.8546 55.0865 26.6415 54.4731C26.1489 54.2472 25.7081 53.9167 25.3471 53.5028C25.1978 53.3771 25.0772 53.2189 24.9945 53.0391C24.9118 52.8592 24.8691 52.6628 24.8691 52.4637C24.8691 52.2645 24.9118 52.067 24.9945 51.8871C25.0772 51.7072 25.1978 51.5491 25.3471 51.4234C25.9575 50.8534 26.6705 50.4136 27.4453 50.1293C29.7249 49.2296 32.0889 48.5794 34.4992 48.1887C37.2226 47.6803 39.991 47.4031 42.7144 47.1258C44.1431 47.1258 45.5718 47.1256 47.179 46.8945H47.4913L47.2232 56.2298Z" fill="#26A17B"/>
</svg>
